<?xml version="1.0" standalone="no"?>
<!DOCTYPE svg PUBLIC "-//W3C//DTD SVG 20010904//EN"
 "http://www.w3.org/TR/2001/REC-SVG-20010904/DTD/svg10.dtd">
<svg version="1.0" xmlns="http://www.w3.org/2000/svg"
 width="370.000000pt" height="370.000000pt" viewBox="0 0 370.000000 370.000000"
 preserveAspectRatio="xMidYMid meet">
<metadata>
Created by potrace 1.14, written by Peter Selinger 2001-2017
</metadata>
<g transform="translate(0.000000,370.000000) scale(0.100000,-0.100000)"
fill="#000000" stroke="none">
<path d="M3270 3667 c-85 -31 -137 -62 -236 -141 -100 -80 -223 -209 -349
-366 -232 -288 -457 -435 -740 -485 -332 -58 -729 62 -1086 326 -44 33 -101
81 -127 107 -219 218 -474 342 -604 293 -139 -53 -143 -348 -9 -658 21 -49 46
-113 55 -143 10 -30 21 -64 26 -75 13 -29 36 -126 56 -235 28 -155 22 -594
-11 -800 -2 -14 -6 -47 -9 -75 -3 -27 -8 -79 -13 -115 -10 -82 -10 -290 -1
-350 41 -245 175 -446 396 -593 86 -58 398 -210 535 -261 138 -52 206 -66 343
-73 229 -11 452 41 819 192 77 32 163 66 190 77 28 11 174 72 325 135 660 276
772 361 798 606 9 82 7 368 -3 472 -3 39 -20 178 -37 310 -26 200 -31 275 -32
450 0 116 3 244 7 285 9 81 58 397 82 520 18 99 14 326 -8 395 -61 189 -197
264 -367 202z"/>
</g>
</svg>
