<svg width="43" height="41" viewBox="0 0 86 82" fill="#99E2D8" xmlns="http://www.w3.org/2000/svg">
  <path d="M85.5 36C86.5 48.5 80.5 50.3333 76 51.5C67.0001 51.5 64 42.5 64.5 36C65 29.5 69.5 21.5 74 21.5C77.2935 21.5 84.7533 26.6661 85.5 36Z" fill="#99E2D8" fill-opacity="0.5"/>
  <path d="M63 15.5C64 28 59.5 29.3333 55 30.5C46.0001 30.5 41.8073 21.6394 44 15.5C46.5 8.5 51 0.5 55.5 0.5C58.7935 0.5 62.2533 6.16606 63 15.5Z" fill="#99E2D8" fill-opacity="0.5"/>
  <path d="M38 18C38.92 29.5 34.573 30.8333 30.073 32C21.073 32 16.8074 24.1394 19 18C21.5 11 24 2.5 28.5 2.5C31.7935 2.5 37.2533 8.66606 38 18Z" fill="#99E2D8" fill-opacity="0.5"/>
  <path d="M19.5 43C20.42 54.5 15 55.3333 10.5 56.5C1.50005 56.5 4.47036e-06 49 0 43.5C-6.04148e-06 36.067 4.067 28 8.56705 28C11.8605 28 18.7533 33.6661 19.5 43Z" fill="#99E2D8" fill-opacity="0.5"/>
  <path d="M33 79C27.5 79 16.5 87.5 14.5 68C14.0385 63.5 25.5905 59.5518 28.5 50.5C33 36.5 41 44.5 44 44.5C47.5 44.5 52.0451 40.4873 55.5 43C59.5 45.9091 57 51 64 56.5C71.6337 62.498 73.7727 63.5 69 74C64 85 56.5 79.5 52 79.5C47.5 79.5 47 82 43.5 82C40.5879 82 38.5 79 33 79Z" fill="#99E2D8" fill-opacity="0.4"/>
</svg>
