<svg width="1542" height="1444" viewBox="0 0 1542 1444" fill="none" xmlns="http://www.w3.org/2000/svg">
<rect width="1542" height="1444" fill="url(#paint0_linear_24_95)"/>
<path d="M472.337 419.466C423.592 250.683 544.256 310.323 602.69 374.152C656.629 419.466 829.434 532.508 964.781 359.047C1100.13 185.587 1171.05 259.649 1146.04 385.846C1110.13 567.024 1146.04 595.101 1146.04 716.688C1146.04 819.497 1146.77 812.51 886.5 919.5C741.135 979.257 692.5 947 618.172 912.562C573.2 891.725 483.75 847.422 498.807 716.688L499.032 714.734C513.864 585.965 521.036 523.699 472.337 419.466Z" fill="#C4C4C4"/>
<path d="M937 814C898.31 789.819 846.5 790.5 826 725.5C814.331 688.5 795.9 551 765.5 551C727.5 551 718.91 687.157 696.5 731.5C673 778 549.5 834.5 618.5 900.5C687.5 966.5 777.511 951.625 834.5 937.5C893 923 973 836.5 937 814Z" fill="#FEFEFE"/>
<path d="M848 823.5C1035.5 829.5 1321.5 996.5 1298.5 1120.5" stroke="#F9F0E9"/>
<path d="M888.5 853.5C1014.5 955.5 1194 1063.5 1274.5 1077" stroke="#F9F0E9"/>
<path d="M851 851.5C932.667 897.667 1107.9 1048.2 1155.5 1281" stroke="#F9F0E9"/>
<path d="M804.5 843.5C905.5 871.5 1030 992 1082 1213.5" stroke="#F9F0E9"/>
<path d="M266.5 910C388.5 951.5 548 792 692 814" stroke="#F9F0E9"/>
<path d="M65 1085.5C216.5 1007.17 544.3 847.3 643.5 834.5" stroke="#F9F0E9"/>
<path d="M679.5 829.5C605.667 838.667 414.2 922 239 1182" stroke="#F9F0E9"/>
<path d="M699 838.5C593 871.5 361.6 995.6 284 1228" stroke="#F9F0E9"/>
<path d="M551 657.5C564 650.5 576.5 640 576.5 634.5C575 630.5 566 632.5 551 638.5C539 643.3 530.333 658.833 527.5 666C526 671.5 521.5 697 531.5 690C541.5 683 538 664.5 551 657.5Z" fill="#A39B96"/>
<path d="M586.787 769.725C576.337 776.131 559.919 757.313 551.843 770.046C545.735 779.674 548.125 780.411 546.879 802.106C536.87 837.873 521.055 807.122 518.016 798.651C514.976 790.18 506.309 729.013 546.19 723.203C586.071 717.392 597.238 763.319 586.787 769.725Z" fill="#F3ECE2"/>
<path d="M618.5 560C598.673 593.393 622.958 597.07 629 587C632 582 642.07 552.863 646 547.5C650.912 540.796 690.716 488.364 680.189 484.239C669.663 480.113 627.092 545.529 618.5 560Z" fill="#E6DFD5"/>
<path d="M733.5 479.5C723.5 478.5 696 534.5 689 551C684.121 562.5 678.6 617.2 689 620C702 623.5 697.908 577.599 703.5 562.5C708.5 549 743.5 480.5 733.5 479.5Z" fill="#E0D8CD"/>
<path d="M777.617 466.026C775.012 464.889 760.034 501.555 752.87 520.031C751.459 524.294 749.483 533.034 752.87 533.887C757.103 534.953 759.708 528.202 761.01 525.005C762.313 521.807 780.874 467.447 777.617 466.026Z" fill="#84807F"/>
<path d="M802.963 515.593C808.675 497.031 815.629 487.016 820.121 479.451C828.095 468.287 821.3 528.196 818.907 544.305C816.514 560.413 814.498 623.354 806.206 619.653C797.914 615.952 793.844 545.225 802.963 515.593Z" fill="#D7CFC4"/>
<path d="M1059.89 594.832C1049.94 607.132 1030.52 590.188 1025.73 585.126C1021.36 581.534 978.671 549.282 984.533 542.665C988.67 537.994 1066.68 586.442 1059.89 594.832Z" fill="#D6D2D0"/>
<path d="M889.566 493.348C882.766 489.748 891.899 515.015 889.566 524.848C887.566 532.029 892.066 540.348 898.066 540.848C904.066 541.348 920.066 530.848 920.066 527.348C920.066 523.848 910.566 528.348 908.066 522.848C904.99 516.082 898.066 497.848 889.566 493.348Z" fill="#E3E0D9"/>
<path d="M594 667.5C581.2 648.7 599.333 635 610 630.5L682.5 684C682.667 685.5 682.9 689.8 682.5 695C682 701.5 677 712 668.5 720C660 728 647 705.5 637 700C627 694.5 610 691 594 667.5Z" fill="#F9F0E9"/>
<path d="M973.924 657C981.424 632 1015.42 632 1036.42 632C1073.42 645 1073.93 649.371 1088.42 668C1109.42 695 1138 763 1119.42 763C1103.42 763 1099.42 739.5 1078.42 715C1057.42 690.5 1052.42 683 1022.42 683C979.572 683 969.602 671.407 973.924 657Z" fill="#84807F"/>
<path d="M1081.44 778.332C1076.94 767.332 985.883 691.332 973.942 705.832C966.942 714.332 1000.94 727.332 1010.94 733.832C1020.94 740.332 1047.35 764.317 1059.94 781.832C1071.44 797.832 1062.44 822.832 1074.44 821.832C1086.44 820.832 1086.42 790.506 1081.44 778.332Z" fill="#BFBAAE"/>
<path d="M985 817.5C971.4 802.3 907.833 764 876 761C865 759.842 868.006 750.555 882 749C895.5 747.5 931.17 748.602 954.599 752.553C978 756.5 1033.6 782.554 1047.1 802.054C1060.6 821.553 1059 846.553 1043.6 846.553C1025.53 846.553 1002 836.5 985 817.5Z" fill="#A39B96"/>
<path d="M637.5 457C648.517 491.275 574.5 518.333 546 524C522 530.545 495 411.5 487.5 389.5C480 367.5 490.5 327.5 519 336C547.5 344.5 624 415 637.5 457Z" fill="#CAB0A0"/>
<path d="M1021 463C993 447 976.667 418.167 980 408C980 390.553 1013.5 357 1038 321C1062.5 285 1094 276 1114 288C1141.5 304.5 1116 463 1099 479.5C1082 496 1059.48 484.989 1021 463Z" fill="#CAB0A0"/>
<path d="M796.375 767.649C758.159 751.874 724.891 758.42 707.094 766.297C703.472 767.9 703.72 772.854 706.995 775.083C736.793 795.368 749.275 845.462 752.5 861.589C749.576 845.875 779.401 797.107 798.048 775.834C800.352 773.205 799.607 768.983 796.375 767.649Z" fill="#D4A3A4"/>
<path d="M760 765.5C756.4 761.9 749 760.833 744 761C742.5 761.025 731.334 758.073 728 764C723.5 772 735 772.5 735 779.5C735 786.5 733.184 797 746 797C757.5 797 759 783.5 761.5 779.5C764 775.5 764.5 770 760 765.5Z" fill="#AE7E6A"/>
<path d="M752.5 856C746 865 726.2 886.4 699 900" stroke="#645958" stroke-width="3"/>
<path d="M753 856C768.833 868.667 806.4 894.3 830 895.5" stroke="#645958" stroke-width="3"/>
<path d="M613.5 648.5C614.7 636.9 607 631 603 629.5C606 629.5 596.5 629.5 627 615C657.5 600.5 691 636 695.5 645C701.352 656.705 700.5 700 697.5 696.5C694.5 693 696.5 692 685.5 689C674.5 686 654.5 695 636.5 689C618.5 683 612 663 613.5 648.5Z" fill="#756C63"/>
<path d="M625.5 668.5C609.9 648.9 625 629.667 634.5 622.5C640.5 619 653 617 664.5 618C676 619 691 638.5 694.5 644.5C698 650.5 704 668.5 689 678.5C674 688.5 645 693 625.5 668.5Z" fill="#958E44"/>
<path d="M667 649C667.8 639 667.667 634 667 632.5C665.4 631.3 663.333 632.5 663 633.5C662.333 637 661.4 644 661 648C660.5 653 659 666 662 665.5C665 665 666 661.5 667 649Z" fill="black"/>
<path d="M645.5 630.5C636.7 630.1 632.5 637.667 631.5 641.5C630.803 643.5 640.5 647 652 645C663.5 643 663.5 639 662.5 634.5C661.5 630 656.5 631 645.5 630.5Z" fill="#E4ECED"/>
<path d="M867.5 698.5C849.5 708.1 836 695 836 683L915.5 660.5C924 656 927.5 631.5 943 622C946.93 619.591 956 643 940 659C924 675 890 686.5 867.5 698.5Z" fill="#F3EFE6"/>
<path d="M832 631C825.382 646.442 830 694 835 697.5C840 701 839 684.5 863 687.5C885.464 690.308 918.5 675 925.5 653.5C931.848 634.001 950 622 943 621.5C936 621 898.149 605 885.5 605C864 605 838 617 832 631Z" fill="#756C63"/>
<path d="M860 611.5C826 621.5 827.5 662.5 835 671C839 674.5 842.709 678.566 860 684C877.5 689.5 898.5 680.5 913.5 668.5C928.5 656.5 926.5 633 921.5 624.5C916.5 616 902.5 599 860 611.5Z" fill="#958E44"/>
<path d="M876.494 646.687C878.05 633.097 876.768 628.58 873.807 628.241C871.438 627.97 870.359 637.393 870.196 644.056C870.033 650.72 868.656 670.609 872.074 669.569C875.493 668.528 874.552 663.647 876.494 646.687Z" fill="black"/>
<path d="M852.5 631C845.7 634.2 845.667 637 847 640C848.5 642.5 852 641 853.5 641C857 641 854.5 640 860.5 641C866.5 642 865.5 631.5 864.5 630.5L864.5 630.5C863.5 629.5 861 627 852.5 631Z" fill="#E4ECED"/>
<defs>
</defs>
</svg>
